<svg id="Layer_1" data-name="Layer 1" xmlns="http://www.w3.org/2000/svg" viewBox="0 0 1160.45 484.64"><defs><style>.cls-1{fill:blue;}.cls-2{fill:red;}</style></defs><path class="cls-1" d="M547.36,337.32q-74.31,0-74.31-51.44a90.37,90.37,0,0,1,1.43-15.37l7.5-44.29q6.07-34.31,31.62-52.7t67.7-18.4q71.81,0,71.8,54.31a113.58,113.58,0,0,1-1.43,17.14l-4.28,25.37h-109L537,260.15a47.88,47.88,0,0,0-.72,7.86q0,19.65,23.22,19.65a21.34,21.34,0,0,0,14.65-5.36,20.46,20.46,0,0,0,7.15-12.5l59.3.71Q628.81,337.32,547.36,337.32Zm42.87-107.17a49.53,49.53,0,0,0,1.43-11.26c0-3.45-1.56-7-4.65-10.54S579,203,572.19,203a28.87,28.87,0,0,0-18.58,6.79q-8.4,6.79-11.61,20.37Z" transform="translate(-22.77 -65.68)"/><path class="cls-1" d="M744.55,337.32q-74.31,0-74.3-51.44a90.3,90.3,0,0,1,1.42-15.37l7.51-44.29q6.06-34.31,31.61-52.7t67.7-18.4q71.81,0,71.81,54.31a113.58,113.58,0,0,1-1.43,17.14l-4.29,25.37h-109l-1.43,8.21a47.8,47.8,0,0,0-.71,7.86q0,19.65,23.22,19.65a21.38,21.38,0,0,0,14.65-5.36,20.45,20.45,0,0,0,7.14-12.5l59.3.71Q826,337.32,744.55,337.32Zm42.87-107.17a49.53,49.53,0,0,0,1.43-11.26q0-5.17-4.64-10.54T769.38,203a28.89,28.89,0,0,0-18.58,6.79q-8.38,6.79-11.61,20.37Z" transform="translate(-22.77 -65.68)"/><path class="cls-1" d="M91.15,469.38q0,25.5,36.77,25.5T164.69,472q0-12.2-12.57-20t-30.48-12.93q-17.94-5.18-35.85-12A74.66,74.66,0,0,1,55.3,405.63Q42.73,391,42.73,369.23q0-92.76,119.37-92.77,43.6,0,66,16.45t22.36,45.64a74.8,74.8,0,0,1-2.77,20.51q-2.78,9.79-5.73,13.86l-3,4.44H173.56q8.13-8.5,8.13-21.44,0-24-31.41-24-39.56,0-39.55,25.13,0,12.57,12.57,20t30.49,11.64a375.18,375.18,0,0,1,36,10.53A70.3,70.3,0,0,1,220.5,420q12.56,14.61,12.56,37.89,0,46.94-28.09,69.66t-86.48,22.73q-58.39,0-79.82-20.7-15.9-15.51-15.9-42.87A126.53,126.53,0,0,1,25,464.21l1.11-5.91H92.62l-.74,4.43A34.44,34.44,0,0,0,91.15,469.38Z" transform="translate(-22.77 -65.68)"/><path class="cls-1" d="M567.89,497.84a30.58,30.58,0,0,0,15.15-3.7l-1.84,41.77a60.28,60.28,0,0,1-39.55,14.41Q508,550.32,498,534.8a40,40,0,0,1-6.65-22,125.47,125.47,0,0,1,1.48-20.51L515,367.38h62.83L557.17,483.8a25.49,25.49,0,0,0-.37,4.06Q556.8,497.84,567.89,497.84Z" transform="translate(-22.77 -65.68)"/><path class="cls-1" d="M784.83,405.08a71.63,71.63,0,0,1-4.25,24.39q-4.26,11.83-8.32,17.37L768.2,452H712.39A27.44,27.44,0,0,0,721.63,431,14.79,14.79,0,0,0,717.38,420q-4.25-4.25-11.64-4.25-12.57,0-21.81,12.57L663.24,545.15H600.41l31.41-177.77h58.4l-4.44,24.76q21.08-29.94,51-29.93,24,0,36,11.45T784.83,405.08Z" transform="translate(-22.77 -65.68)"/><path class="cls-1" d="M874.63,550.32q-42.87,0-61.72-19.22-14-14-14-37.69a101.09,101.09,0,0,1,1.48-16.64l25.13-143,67.63-28.09-10.72,61.72h102l-9.24,52.11h-102l-7.39,41.76a62.09,62.09,0,0,0-1.48,12.57q0,23.28,22.18,23.28,11.82,0,19.77-10t10.9-26.61h61.35Q963,550.32,874.63,550.32Z" transform="translate(-22.77 -65.68)"/><path class="cls-1" d="M1183.23,405.82a38,38,0,0,1-7.39,22.54h-60.62q3-2.22,3-7.39t-5.91-8.32q-5.93-3.13-15.15-3.14-27.72,0-27.72,17,0,6.66,10.35,9.61a166.5,166.5,0,0,0,25.13,4.8,280.7,280.7,0,0,1,29.56,5.36,51.85,51.85,0,0,1,25.13,13.86q10.35,10.35,10.35,27.72,0,30.69-24.57,46.57t-71.52,15.89q-46.93,0-65.78-15.15-14.79-11.83-14.78-32.53a70.08,70.08,0,0,1,1.1-12.19l61.72-.74q-.73,5.18,6.1,9.05t20.14,3.88q13.31,0,19.22-2.77t5.91-10.53q0-5.18-10.34-7.21t-25.32-3.51a252.58,252.58,0,0,1-29.94-4.8,49.2,49.2,0,0,1-25.31-14.05q-10.35-10.71-10.35-28.08,0-33.63,26.06-51.74t75.2-18.11Q1183.22,361.84,1183.23,405.82Z" transform="translate(-22.77 -65.68)"/><path class="cls-2" d="M554.43,111.14q0-23.65,10.54-34.56t32.7-10.9q31.05,0,31.05,27.35,0,23.28-10.53,34t-33.08,10.72Q554.43,137.75,554.43,111.14Z" transform="translate(-22.77 -65.68)"/><path class="cls-2" d="M356.47,331.84l35.84-201H480.2l10-55.73H249.42l-10,55.73h88.24L293.3,333h.13L256,545.15H318.8l20.7-116.79q10.33-12.56,29-12.57t18.66,17.74a80.77,80.77,0,0,1-1.11,13.31l-8.13,45.46a93.55,93.55,0,0,0-1.47,15.89q0,42.13,50.26,42.13a60.26,60.26,0,0,0,39.54-14.41l1.85-41.77a30.6,30.6,0,0,1-15.15,3.7q-11.08,0-11.09-10a24.37,24.37,0,0,1,.37-4.06l10-55.07a132.31,132.31,0,0,0,2.22-25.13,42.22,42.22,0,0,0-7.76-24.76q-11.1-16.63-48.42-16.63-30.67,0-51,21.8l9.21-52.17Z" transform="translate(-22.77 -65.68)"/></svg>